<svg width="1920" height="4671" viewBox="0 0 1920 4671" fill="none" xmlns="http://www.w3.org/2000/svg">
<mask id="mask0" mask-type="alpha" maskUnits="userSpaceOnUse" x="-1" y="0" width="1921" height="4671">
<rect x="-0.000610352" width="1920" height="4671" fill="#F1F1F1"/>
</mask>
<g mask="url(#mask0)">
<rect width="1920" height="4671" fill="#E5E5E5"/>
<path d="M1302 0C1305.06 127.209 1329.33 311.825 1451.65 415.86C1471.62 432.842 1487.97 442.382 1506.28 452.937C1592.84 502.835 1729.5 580.727 1920 686V0H1302Z" fill="#950EFF"/>
<path d="M488.443 838.245C558.309 897.342 612.957 976.393 644.085 1067.72C675.214 1159.06 682.823 1262.67 648.236 1341.72C613.649 1420.77 536.865 1476.03 463.54 1532.82C390.215 1589.62 318.966 1648.71 221.43 1690.16C123.894 1730.84 -0.61983 1753.86 -75.3282 1697.07C-150.728 1641.04 -177.014 1505.19 -182.548 1385.47C-188.774 1266.5 -173.556 1162.89 -163.871 1036.26C-153.495 909.622 -148.653 759.193 -80.1704 699.329C-12.3795 640.232 117.668 670.932 225.58 705.469C333.492 740.006 417.885 779.148 488.443 838.245Z" fill="#950EFF"/>
<path d="M2106.66 1956.38C2069.97 1787.05 2009.27 1531.41 1924.73 1513.59C1841.13 1496.04 1733.45 1717.35 1618.11 1898.44C1503.71 2079.81 1380.01 2219.37 1378.99 2373.29C1378.22 2526.16 1498.72 2690.75 1647.59 2760.76C1796.21 2831.81 1971.81 2805.65 2062.64 2711.32C2154.67 2616.21 2161.94 2452.93 2158.88 2329.12C2156.52 2206.63 2143.59 2124.66 2106.66 1956.38Z" fill="#950EFF"/>
<path d="M-133.198 3156.16C-96.5089 2986.83 -35.8126 2731.2 48.7278 2713.37C132.324 2695.82 240.012 2917.13 355.354 3098.23C469.752 3279.59 593.446 3419.15 594.469 3573.07C595.244 3725.94 474.742 3890.53 325.872 3960.54C177.249 4031.6 1.65184 4005.44 -89.1843 3911.1C-181.211 3816 -188.477 3652.72 -185.421 3528.91C-183.061 3406.41 -170.133 3324.44 -133.198 3156.16Z" fill="#950EFF"/>
</g>
</svg>
