<svg width="60" height="60" viewBox="0 0 60 60" fill="none" xmlns="http://www.w3.org/2000/svg">
<path d="M7.5 10C6.11929 10 5 11.1193 5 12.5C5 13.8807 6.11929 15 7.5 15H52.5C53.8807 15 55 13.8807 55 12.5C55 11.1193 53.8807 10 52.5 10H7.5Z" fill="#950EFF"/>
<path fill-rule="evenodd" clip-rule="evenodd" d="M2.5 21.25C2.5 19.1789 4.17897 17.5 6.25 17.5H53.75C55.8211 17.5 57.5 19.1789 57.5 21.25V48.75C57.5 50.8211 55.8211 52.5 53.75 52.5H37.5C36.8365 52.5 36.2001 52.2362 35.7312 51.7667L30.0079 46.0368L24.2664 51.7692C23.7976 52.2372 23.1623 52.5 22.5 52.5H6.25C4.17897 52.5 2.5 50.8211 2.5 48.75V21.25ZM10 35C10 30.8579 13.3579 27.5 17.5 27.5C21.6421 27.5 25 30.8579 25 35C25 39.1421 21.6421 42.5 17.5 42.5C13.3579 42.5 10 39.1421 10 35ZM35 35C35 30.8579 38.3579 27.5 42.5 27.5C46.6421 27.5 50 30.8579 50 35C50 39.1421 46.6421 42.5 42.5 42.5C38.3579 42.5 35 39.1421 35 35Z" fill="#950EFF"/>
</svg>
