<svg width="56" height="56" viewBox="0 0 56 56" fill="none" xmlns="http://www.w3.org/2000/svg">
<path fill-rule="evenodd" clip-rule="evenodd" d="M0.5 3C0.5 1.61929 1.61929 0.5 3 0.5H53C54.3807 0.5 55.5 1.61929 55.5 3V23C55.5 24.3807 54.3807 25.5 53 25.5H3C1.61929 25.5 0.5 24.3807 0.5 23V3ZM14.25 10.5H11.75C11.0596 10.5 10.5 11.0596 10.5 11.75V14.25C10.5 14.9404 11.0596 15.5 11.75 15.5H14.25C14.9404 15.5 15.5 14.9404 15.5 14.25V11.75C15.5 11.0596 14.9404 10.5 14.25 10.5ZM21.75 10.5H24.25C24.9404 10.5 25.5 11.0596 25.5 11.75V14.25C25.5 14.9404 24.9404 15.5 24.25 15.5H21.75C21.0596 15.5 20.5 14.9404 20.5 14.25V11.75C20.5 11.0596 21.0596 10.5 21.75 10.5Z" fill="#950EFF"/>
<path fill-rule="evenodd" clip-rule="evenodd" d="M0.5 33C0.5 31.6193 1.61929 30.5 3 30.5H53C54.3807 30.5 55.5 31.6193 55.5 33V53C55.5 54.3807 54.3807 55.5 53 55.5H3C1.61929 55.5 0.5 54.3807 0.5 53V33ZM14.25 40.5H11.75C11.0596 40.5 10.5 41.0596 10.5 41.75V44.25C10.5 44.9404 11.0596 45.5 11.75 45.5H14.25C14.9404 45.5 15.5 44.9404 15.5 44.25V41.75C15.5 41.0596 14.9404 40.5 14.25 40.5ZM24.25 40.5H21.75C21.0596 40.5 20.5 41.0596 20.5 41.75V44.25C20.5 44.9404 21.0596 45.5 21.75 45.5H24.25C24.9404 45.5 25.5 44.9404 25.5 44.25V41.75C25.5 41.0596 24.9404 40.5 24.25 40.5Z" fill="#950EFF"/>
</svg>
