<svg width="60" height="60" viewBox="0 0 60 60" fill="none" xmlns="http://www.w3.org/2000/svg">
<path d="M35.8059 6.56137C35.9779 5.19141 35.0067 3.94144 33.6368 3.76948C32.2668 3.59753 31.0168 4.56871 30.8449 5.93867L24.8827 53.4387C24.7108 54.8086 25.682 56.0586 27.0519 56.2306C28.4219 56.4025 29.6719 55.4313 29.8438 54.0614L35.8059 6.56137Z" fill="#950EFF"/>
<path d="M21.7362 14.4513C22.7296 15.4102 22.7576 16.9928 21.7988 17.9862L8.53611 31.7266L21.7351 44.4501C22.7291 45.4084 22.7581 46.991 21.7999 47.9851C20.8416 48.9791 19.259 49.0081 18.2649 48.0499L3.26494 33.5902C2.78738 33.1298 2.51235 32.4985 2.50041 31.8353C2.48846 31.1721 2.74057 30.5313 3.20124 30.054L18.2012 14.5138C19.1601 13.5204 20.7428 13.4924 21.7362 14.4513Z" fill="#950EFF"/>
<path d="M38.2638 14.4513C39.2572 13.4924 40.8399 13.5204 41.7988 14.5138L56.7988 30.054C57.2594 30.5313 57.5115 31.1721 57.4996 31.8353C57.4876 32.4985 57.2126 33.1298 56.7351 33.5902L41.7351 48.0499C40.741 49.0081 39.1584 48.9791 38.2001 47.9851C37.2419 46.991 37.2709 45.4084 38.2649 44.4501L51.4639 31.7266L38.2012 17.9862C37.2424 16.9928 37.2704 15.4102 38.2638 14.4513Z" fill="#950EFF"/>
</svg>
