<svg width="100" height="100" viewBox="0 0 100 100" fill="none" xmlns="http://www.w3.org/2000/svg">
<circle cx="50" cy="50" r="50" fill="#950EFF"/>
<path d="M7.03442 75.5876C13.121 85.7844 22.7356 93.6314 34.1938 97.4461C36.6954 97.9035 37.607 96.3595 37.607 95.0335C37.607 94.4846 37.5978 93.5145 37.5855 92.2165C37.5712 90.7131 37.5527 88.7697 37.5395 86.5311C23.6318 89.5515 20.6974 79.8274 20.6974 79.8274C18.4229 74.0538 15.1447 72.516 15.1447 72.516C10.605 69.4127 15.4885 69.4741 15.4885 69.4741C20.5071 69.8302 23.1468 74.6277 23.1468 74.6277C27.6067 82.2676 34.8507 80.0607 37.6991 78.7838C38.1534 75.5517 39.4426 73.3478 40.8729 72.0985C29.7707 70.837 18.0975 66.5459 18.0975 47.3863C18.0975 41.9288 20.0466 37.4658 23.245 33.9697C22.7293 32.705 21.0135 27.622 23.7331 20.7372C23.7331 20.7372 27.9321 19.3928 37.4843 25.8632C41.4715 24.7551 45.7503 24.1996 50.0015 24.1811C54.2466 24.1996 58.5254 24.7551 62.5188 25.8632C72.0648 19.3928 76.2546 20.7372 76.2546 20.7372C78.9834 27.622 77.2675 32.705 76.7519 33.9697C79.9564 37.4658 81.8932 41.9288 81.8932 47.3863C81.8932 66.595 70.2016 70.8216 59.0626 72.0586C60.8582 73.6025 62.4574 76.6536 62.4574 81.3192C62.4574 85.7881 62.4299 89.6804 62.4117 92.2588C62.4027 93.5359 62.396 94.4906 62.396 95.0335C62.396 96.3718 63.2954 97.928 65.8338 97.44C74.9617 94.3931 82.9184 88.7886 88.8514 81.4759C79.6842 92.7771 65.6856 99.9999 50 99.9999C31.7366 99.9999 15.7602 90.208 7.03442 75.5876Z" fill="white"/>
</svg>
