<svg width="100" height="100" viewBox="0 0 100 100" fill="none" xmlns="http://www.w3.org/2000/svg">
<circle cx="50" cy="50" r="50" fill="#950EFF"/>
<path fill-rule="evenodd" clip-rule="evenodd" d="M36.9369 25.7097C36.9369 28.8224 34.5668 31.3415 30.8604 31.3415C27.2984 31.3415 24.9283 28.8224 25.0017 25.7097C24.9283 22.4457 27.2983 20 30.9314 20C34.5667 20 36.8658 22.4457 36.9369 25.7097ZM25.2996 72.0476V35.7905H36.5678V72.0453H25.2996V72.0476Z" fill="white"/>
<path fill-rule="evenodd" clip-rule="evenodd" d="M45.5994 47.3615C45.5994 42.8391 45.4504 38.9838 45.3014 35.7954H55.0889L55.6092 40.7625H55.8315C57.3146 38.4635 61.021 34.9817 67.0264 34.9817C74.4392 34.9817 80 39.8754 80 50.5476V72.0525H68.7317V51.9596C68.7317 47.2859 67.102 44.0998 63.0243 44.0998C59.9093 44.0998 58.0572 46.2498 57.3169 48.3242C57.0189 49.0669 56.8722 50.1029 56.8722 51.1436V72.0525H45.604V47.3615H45.5994Z" fill="white"/>
</svg>
