<svg width="100" height="100" viewBox="0 0 100 100" fill="none" xmlns="http://www.w3.org/2000/svg">
<circle cx="50" cy="50" r="50" fill="#950EFF"/>
<path fill-rule="evenodd" clip-rule="evenodd" d="M80 30.7716C77.7941 31.7516 75.4203 32.4115 72.9305 32.7095C75.4723 31.1856 77.4242 28.7737 78.3421 25.8999C75.9663 27.3118 73.3284 28.3338 70.5266 28.8877C68.2808 26.4959 65.079 25 61.5412 25C54.7437 25 49.232 30.5116 49.232 37.3092C49.232 38.2731 49.342 39.213 49.552 40.115C39.3207 39.603 30.2513 34.7014 24.1797 27.2538C23.1198 29.0717 22.5138 31.1856 22.5138 33.4415C22.5138 37.7112 24.6837 41.4789 27.9895 43.6868C25.9696 43.6228 24.0737 43.0688 22.4118 42.1469V42.3008C22.4118 48.2664 26.6576 53.2401 32.2852 54.374C31.2532 54.654 30.1653 54.806 29.0434 54.806C28.2494 54.806 27.4775 54.728 26.7255 54.584C28.2914 59.4737 32.8391 63.0335 38.2248 63.1335C34.0131 66.4333 28.7054 68.4031 22.9378 68.4031C21.9419 68.4031 20.9619 68.3451 20 68.2291C25.4476 71.7209 31.9172 73.7608 38.8687 73.7608C61.5092 73.7608 73.8904 55.004 73.8904 38.7391C73.8904 38.2051 73.8804 37.6732 73.8544 37.1472C76.2623 35.4073 78.3501 33.2395 80 30.7716Z" fill="white"/>
</svg>
